# xmcd
#
# Track frame offsets:
#	150
#	21565
#	41940
#	77878
#	100368
#	114345
#	143653
#	156958
#	176168
#	189825
#	201148
#	224898
#	241365
#	269590
#
# Disc length: 3925 seconds
#
# Revision: 2
# Processed by: cddbd v1.5.2PL0 Copyright (c) Steve Scherf et al.
# Submitted via: audiograbber 1.83.01
#
DISCID=d60f530e
DTITLE=Billy Paul - The Best Of  
DYEAR=1999
DGENRE=Oldies
TTITLE0=Me And Mrs. Jones
TTITLE1=Billy's Back Home
TTITLE2=Black Wonders Of The World
TTITLE3=Let 'Em In
TTITLE4=Be Truthful To Me
TTITLE5=Your Song
TTITLE6=Thanks For Saving My Life
TTITLE7=This Is Your Life
TTITLE8=Bluesette
TTITLE9=Don't Think Twice, It's All Right
TTITLE10=Am I Black Enough For You
TTITLE11=Love Buddies
TTITLE12=I Think I'll Stay Home Today
TTITLE13=When Love Is New
EXTD=
EXTT0=
EXTT1=
EXTT2=
EXTT3=
EXTT4=
EXTT5=
EXTT6=
EXTT7=
EXTT8=
EXTT9=
EXTT10=
EXTT11=
EXTT12=
EXTT13=
PLAYORDER=
